<!DOCTYPE svg [<!ENTITY nbsp "&#160;">]><svg version="1.1" id="mscgenjs__svg" class="mscgenjs__svg" xmlns="http://www.w3.org/2000/svg" xmlns:xlink="http://www.w3.org/1999/xlink" width="656" height="596" viewBox="0 0 656 596"><desc>

# Generated by mscgen_js - https://sverweij.github.io/mscgen_js
arcgradient="8";

Publisher,
Broker,
SubscriberA,
SubscriberB;

SubscriberA -&gt; Broker : "SUBSCRIBE('home/temp')";
SubscriberB -&gt; Broker : "SUBSCRIBE('home/temp')";
SubscriberB -&gt; Broker : "SUBSCRIBE('home/lights')";
...;
Publisher -&gt; Broker : "PUBLISH('home/temp', 21.5)";
Broker -&gt; SubscriberA : "MESSAGE('home/temp', 21.5)";
Broker -&gt; SubscriberB : "MESSAGE('home/temp', 21.5)";
...;
Publisher -&gt; Broker : "PUBLISH('home/lights', 'on')";
Broker -&gt; SubscriberB : "MESSAGE('home/lights', 'on')";
SubscriberA note SubscriberA : "Does not receive 'lights' message.";
</desc><defs><style type="text/css">svg.mscgenjs__svg{font-family:Helvetica,sans-serif;font-size:12px;font-weight:normal;font-style:normal;text-decoration:none;background-color:white;stroke:black;stroke-width:2}.mscgenjs__svg path, .mscgenjs__svg rect{fill:none}.mscgenjs__svg .label-text-background{fill:white;stroke:white;stroke-width:0}.mscgenjs__svg .bglayer{fill:white;stroke:white;stroke-width:0}.mscgenjs__svg line{}.mscgenjs__svg .return, .mscgenjs__svg .comment{stroke-dasharray:5,3}.mscgenjs__svg .inline_expression_divider{stroke-dasharray:10,5}.mscgenjs__svg text{color:inherit;stroke:none;text-anchor:middle}.mscgenjs__svg text.anchor-start{text-anchor:start}.mscgenjs__svg .arrow-marker{overflow:visible}.mscgenjs__svg .arrow-style{stroke-width:1}.mscgenjs__svg .arcrow, .mscgenjs__svg .arcrowomit, .mscgenjs__svg .emphasised{stroke-linecap:butt}.mscgenjs__svg .arcrowomit{stroke-dasharray:2,2}.mscgenjs__svg .box, .mscgenjs__svg .entity{fill:white;stroke-linejoin:round}.mscgenjs__svg .inherit{stroke:inherit;color:inherit}.mscgenjs__svg .inherit-fill{fill:inherit}.mscgenjs__svg .watermark{font-size:48pt;font-weight:bold;opacity:0.14}.mscgenjs__svg line, .mscgenjs__svg path{stroke:#00A1DE}.mscgenjs__svg text{fill:#005B82}.mscgenjs__svg .entity,.mscgenjs__svg .box{fill:#00A1DE;stroke:#00A1DE}.mscgenjs__svg text.box-text{fill:white}.mscgenjs__svg text.entity-text{font-weight:bold;fill:white;text-decoration:none}.mscgenjs__svg text.return-text{font-style:italic}.mscgenjs__svg path.note{fill:#E77B2F;stroke:white}.mscgenjs__svg .comment,.mscgenjs__svg .inline_expression,.mscgenjs__svg .inline_expression_divider,.mscgenjs__svg .inline_expression_label{fill:white}</style><marker orient="auto" id="mscgenjs__svgsignal-black" class="arrow-marker" viewBox="0 0 10 10" refX="9" refY="3" markerUnits="strokeWidth" markerWidth="10" markerHeight="10"><path d="M9,3 l-8, 2" class="arrow-style" style="stroke-dasharray:100,1;stroke:black"></path></marker><marker orient="auto" id="mscgenjs__svgsignal-u-black" class="arrow-marker" viewBox="0 0 10 10" refX="9" refY="3" markerUnits="strokeWidth" markerWidth="10" markerHeight="10"><path d="M9,3 l-8,-2" class="arrow-style" style="stroke-dasharray:100,1;stroke:black"></path></marker><marker orient="auto" id="mscgenjs__svgsignal-l-black" class="arrow-marker" viewBox="0 0 10 10" refX="9" refY="3" markerUnits="strokeWidth" markerWidth="10" markerHeight="10"><path d="M9,3 l 8, 2" class="arrow-style" style="stroke-dasharray:100,1;stroke:black"></path></marker><marker orient="auto" id="mscgenjs__svgsignal-lu-black" class="arrow-marker" viewBox="0 0 10 10" refX="9" refY="3" markerUnits="strokeWidth" markerWidth="10" markerHeight="10"><path d="M9,3 l 8,-2" class="arrow-style" style="stroke-dasharray:100,1;stroke:black"></path></marker></defs><g id="mscgenjs__svg_body" transform="translate(38,3) scale(1,1)"><g id="mscgenjs__svg_background"><rect width="656" height="596" x="-38" y="-3" class="bglayer"></rect></g><g id="mscgenjs__svg_arcspans"></g><g id="mscgenjs__svg_lifelines"><line x1="50" y1="38" x2="50" y2="84" class="arcrow"></line><line x1="210" y1="38" x2="210" y2="84" class="arcrow"></line><line x1="370" y1="38" x2="370" y2="84" class="arcrow"></line><line x1="530" y1="38" x2="530" y2="84" class="arcrow"></line><line x1="50" y1="84" x2="50" y2="130" class="arcrow"></line><line x1="210" y1="84" x2="210" y2="130" class="arcrow"></line><line x1="370" y1="84" x2="370" y2="130" class="arcrow"></line><line x1="530" y1="84" x2="530" y2="130" class="arcrow"></line><line x1="50" y1="130" x2="50" y2="176" class="arcrow"></line><line x1="210" y1="130" x2="210" y2="176" class="arcrow"></line><line x1="370" y1="130" x2="370" y2="176" class="arcrow"></line><line x1="530" y1="130" x2="530" y2="176" class="arcrow"></line><line x1="50" y1="176" x2="50" y2="222" class="arcrow"></line><line x1="210" y1="176" x2="210" y2="222" class="arcrow"></line><line x1="370" y1="176" x2="370" y2="222" class="arcrow"></line><line x1="530" y1="176" x2="530" y2="222" class="arcrow"></line><line x1="50" y1="222" x2="50" y2="268" class="arcrowomit"></line><line x1="210" y1="222" x2="210" y2="268" class="arcrowomit"></line><line x1="370" y1="222" x2="370" y2="268" class="arcrowomit"></line><line x1="530" y1="222" x2="530" y2="268" class="arcrowomit"></line><line x1="50" y1="268" x2="50" y2="314" class="arcrow"></line><line x1="210" y1="268" x2="210" y2="314" class="arcrow"></line><line x1="370" y1="268" x2="370" y2="314" class="arcrow"></line><line x1="530" y1="268" x2="530" y2="314" class="arcrow"></line><line x1="50" y1="314" x2="50" y2="360" class="arcrow"></line><line x1="210" y1="314" x2="210" y2="360" class="arcrow"></line><line x1="370" y1="314" x2="370" y2="360" class="arcrow"></line><line x1="530" y1="314" x2="530" y2="360" class="arcrow"></line><line x1="50" y1="360" x2="50" y2="406" class="arcrow"></line><line x1="210" y1="360" x2="210" y2="406" class="arcrow"></line><line x1="370" y1="360" x2="370" y2="406" class="arcrow"></line><line x1="530" y1="360" x2="530" y2="406" class="arcrow"></line><line x1="50" y1="406" x2="50" y2="452" class="arcrowomit"></line><line x1="210" y1="406" x2="210" y2="452" class="arcrowomit"></line><line x1="370" y1="406" x2="370" y2="452" class="arcrowomit"></line><line x1="530" y1="406" x2="530" y2="452" class="arcrowomit"></line><line x1="50" y1="452" x2="50" y2="498" class="arcrow"></line><line x1="210" y1="452" x2="210" y2="498" class="arcrow"></line><line x1="370" y1="452" x2="370" y2="498" class="arcrow"></line><line x1="530" y1="452" x2="530" y2="498" class="arcrow"></line><line x1="50" y1="498" x2="50" y2="544" class="arcrow"></line><line x1="210" y1="498" x2="210" y2="544" class="arcrow"></line><line x1="370" y1="498" x2="370" y2="544" class="arcrow"></line><line x1="530" y1="498" x2="530" y2="544" class="arcrow"></line><line x1="50" y1="544" x2="50" y2="590" class="arcrow"></line><line x1="210" y1="544" x2="210" y2="590" class="arcrow"></line><line x1="370" y1="544" x2="370" y2="590" class="arcrow"></line><line x1="530" y1="544" x2="530" y2="590" class="arcrow"></line></g><g id="mscgenjs__svg_sequence"><g><g><rect width="100" height="38" class="entity"></rect><g><text x="50" y="22.53" class="entity-text "><tspan>Publisher</tspan></text></g></g><g><rect width="100" height="38" x="160" class="entity"></rect><g><text x="210" y="22.53" class="entity-text "><tspan>Broker</tspan></text></g></g><g><rect width="100" height="38" x="320" class="entity"></rect><g><text x="370" y="22.53" class="entity-text "><tspan>SubscriberA</tspan></text></g></g><g><rect width="100" height="38" x="480" class="entity"></rect><g><text x="530" y="22.53" class="entity-text "><tspan>SubscriberB</tspan></text></g></g></g><g><line x1="370" y1="107" x2="210" y2="115" class="arc directional signal" style="stroke:black" marker-end="url(#mscgenjs__svgsignal-u-black)"></line><g><rect width="143" height="14" x="218.5" y="95.47" class="label-text-background"></rect><text x="290" y="106.47" class="directional-text signal-text "><tspan>SUBSCRIBE('home/temp')</tspan></text></g></g><g><line x1="530" y1="153" x2="210" y2="161" class="arc directional signal" style="stroke:black" marker-end="url(#mscgenjs__svgsignal-u-black)"></line><g><rect width="143" height="14" x="298.5" y="141.47" class="label-text-background"></rect><text x="370" y="152.47" class="directional-text signal-text "><tspan>SUBSCRIBE('home/temp')</tspan></text></g></g><g><line x1="530" y1="199" x2="210" y2="207" class="arc directional signal" style="stroke:black" marker-end="url(#mscgenjs__svgsignal-u-black)"></line><g><rect width="145" height="14" x="297.5" y="187.47" class="label-text-background"></rect><text x="370" y="198.47" class="directional-text signal-text "><tspan>SUBSCRIBE('home/lights')</tspan></text></g></g><g></g><g><line x1="50" y1="291" x2="210" y2="299" class="arc directional signal" style="stroke:black" marker-end="url(#mscgenjs__svgsignal-black)"></line><g><rect width="155" height="14" x="52.5" y="279.47" class="label-text-background"></rect><text x="130" y="290.47" class="directional-text signal-text "><tspan>PUBLISH('home/temp', 21.5)</tspan></text></g></g><g><line x1="210" y1="337" x2="370" y2="345" class="arc directional signal" style="stroke:black" marker-end="url(#mscgenjs__svgsignal-black)"></line><g><rect width="162" height="14" x="209" y="325.47" class="label-text-background"></rect><text x="290" y="336.47" class="directional-text signal-text "><tspan>MESSAGE('home/temp', 21.5)</tspan></text></g></g><g><line x1="210" y1="383" x2="530" y2="391" class="arc directional signal" style="stroke:black" marker-end="url(#mscgenjs__svgsignal-black)"></line><g><rect width="162" height="14" x="289" y="371.47" class="label-text-background"></rect><text x="370" y="382.47" class="directional-text signal-text "><tspan>MESSAGE('home/temp', 21.5)</tspan></text></g></g><g></g><g><line x1="50" y1="475" x2="210" y2="483" class="arc directional signal" style="stroke:black" marker-end="url(#mscgenjs__svgsignal-black)"></line><g><rect width="151" height="14" x="54.5" y="463.47" class="label-text-background"></rect><text x="130" y="474.47" class="directional-text signal-text "><tspan>PUBLISH('home/lights', 'on')</tspan></text></g></g><g><line x1="210" y1="521" x2="530" y2="529" class="arc directional signal" style="stroke:black" marker-end="url(#mscgenjs__svgsignal-black)"></line><g><rect width="158" height="14" x="291" y="509.47" class="label-text-background"></rect><text x="370" y="520.47" class="directional-text signal-text "><tspan>MESSAGE('home/lights', 'on')</tspan></text></g></g></g><g id="mscgenjs__svg_notes"><g><path d="M294,546 l143,0 l0,9 l9,0 m-9,-9 l9,9 l0,33 l-152,0 l0,-42 z" class="box note"></path><g><text x="370" y="562.97" class="box-text note-text "><tspan>Does not receive</tspan></text><text x="370" y="578.09" class="box-text note-text "><tspan>'lights' message.</tspan></text></g></g></g><g id="mscgenjs__svg_watermark"></g></g></svg>